<mxfile host="app.diagrams.net" modified="2024-03-10T06:52:57.157Z" agent="Mozilla/5.0 (Windows NT 10.0; Win64; x64) AppleWebKit/537.36 (KHTML, like Gecko) Chrome/122.0.0.0 Safari/537.36 Edg/122.0.0.0" etag="qXETtgz0QZmW0bDLUr9j" version="21.7.1" type="github">
  <diagram name="第 1 页" id="ewmNJptE8d74aeXKIN9-">
    <mxGraphModel dx="1386" dy="759" grid="1" gridSize="10" guides="1" tooltips="1" connect="1" arrows="1" fold="1" page="1" pageScale="1" pageWidth="827" pageHeight="1169" math="0" shadow="0">
      <root>
        <mxCell id="0" />
        <mxCell id="1" parent="0" />
        <mxCell id="TKt5UesDh4hAwmA9AJoG-1" value="Protocolo" style="swimlane;fontStyle=1;align=center;verticalAlign=top;childLayout=stackLayout;horizontal=1;startSize=26;horizontalStack=0;resizeParent=1;resizeParentMax=0;resizeLast=0;collapsible=1;marginBottom=0;whiteSpace=wrap;html=1;" vertex="1" parent="1">
          <mxGeometry x="70" y="260" width="160" height="470" as="geometry" />
        </mxCell>
        <mxCell id="TKt5UesDh4hAwmA9AJoG-2" value="int upperDataPackLen;&lt;div style=&quot;resize: none; outline: none; font-size: 13px; color: rgb(50, 50, 50); font-family: &amp;quot;Microsoft YaHei&amp;quot;, 微软雅黑, Arial;&quot;&gt;int ack;//记录下一次期望得到的ack&lt;/div&gt;&lt;div style=&quot;resize: none; outline: none; font-size: 13px; color: rgb(50, 50, 50); font-family: &amp;quot;Microsoft YaHei&amp;quot;, 微软雅黑, Arial;&quot;&gt;int seq;//记录当前数据包的序号&lt;/div&gt;&lt;div style=&quot;resize: none; outline: none; font-size: 13px; color: rgb(50, 50, 50); font-family: &amp;quot;Microsoft YaHei&amp;quot;, 微软雅黑, Arial;&quot;&gt;long sock;&lt;/div&gt;&lt;div style=&quot;resize: none; outline: none; font-size: 13px; color: rgb(50, 50, 50); font-family: &amp;quot;Microsoft YaHei&amp;quot;, 微软雅黑, Arial;&quot;&gt;bool keepAlive;//当前连接是否保活&lt;/div&gt;&lt;div style=&quot;resize: none; outline: none; font-size: 13px; color: rgb(50, 50, 50); font-family: &amp;quot;Microsoft YaHei&amp;quot;, 微软雅黑, Arial;&quot;&gt;char* inBuffer[4096];&lt;/div&gt;&lt;div style=&quot;resize: none; outline: none; font-size: 13px; color: rgb(50, 50, 50); font-family: &amp;quot;Microsoft YaHei&amp;quot;, 微软雅黑, Arial;&quot;&gt;char* outBuffer[4096];&lt;/div&gt;&lt;div style=&quot;resize: none; outline: none; font-size: 13px; color: rgb(50, 50, 50); font-family: &amp;quot;Microsoft YaHei&amp;quot;, 微软雅黑, Arial;&quot;&gt;workerPool* pool;//工作者线程池&lt;/div&gt;&lt;div style=&quot;resize: none; outline: none; font-size: 13px; color: rgb(50, 50, 50); font-family: &amp;quot;Microsoft YaHei&amp;quot;, 微软雅黑, Arial;&quot;&gt;epoll* poller;//事件监听&lt;/div&gt;" style="text;strokeColor=none;fillColor=none;align=left;verticalAlign=top;spacingLeft=4;spacingRight=4;overflow=hidden;rotatable=0;points=[[0,0.5],[1,0.5]];portConstraint=eastwest;whiteSpace=wrap;html=1;" vertex="1" parent="TKt5UesDh4hAwmA9AJoG-1">
          <mxGeometry y="26" width="160" height="264" as="geometry" />
        </mxCell>
        <mxCell id="TKt5UesDh4hAwmA9AJoG-3" value="" style="line;strokeWidth=1;fillColor=none;align=left;verticalAlign=middle;spacingTop=-1;spacingLeft=3;spacingRight=3;rotatable=0;labelPosition=right;points=[];portConstraint=eastwest;strokeColor=inherit;" vertex="1" parent="TKt5UesDh4hAwmA9AJoG-1">
          <mxGeometry y="290" width="160" height="8" as="geometry" />
        </mxCell>
        <mxCell id="TKt5UesDh4hAwmA9AJoG-4" value="void handleRead();//读取包头和包体&lt;div style=&quot;resize: none; outline: none; font-size: 13px; color: rgb(50, 50, 50); font-family: &amp;quot;Microsoft YaHei&amp;quot;, 微软雅黑, Arial;&quot;&gt;void handleWrite();//将outbuffer中的数据进行封装后发给sock&lt;/div&gt;&lt;div style=&quot;resize: none; outline: none; font-size: 13px; color: rgb(50, 50, 50); font-family: &amp;quot;Microsoft YaHei&amp;quot;, 微软雅黑, Arial;&quot;&gt;void parseProtocol();//解析包头，将包体数据写入outBuffer;并投递业务处理任务到线程池中&lt;/div&gt;&lt;div style=&quot;resize: none; outline: none; font-size: 13px; color: rgb(50, 50, 50); font-family: &amp;quot;Microsoft YaHei&amp;quot;, 微软雅黑, Arial;&quot;&gt;void&amp;nbsp;handleNewConnecttion();//建立新链接&lt;/div&gt;" style="text;strokeColor=none;fillColor=none;align=left;verticalAlign=top;spacingLeft=4;spacingRight=4;overflow=hidden;rotatable=0;points=[[0,0.5],[1,0.5]];portConstraint=eastwest;whiteSpace=wrap;html=1;" vertex="1" parent="TKt5UesDh4hAwmA9AJoG-1">
          <mxGeometry y="298" width="160" height="172" as="geometry" />
        </mxCell>
        <mxCell id="TKt5UesDh4hAwmA9AJoG-5" value="Channel" style="swimlane;fontStyle=1;align=center;verticalAlign=top;childLayout=stackLayout;horizontal=1;startSize=26;horizontalStack=0;resizeParent=1;resizeParentMax=0;resizeLast=0;collapsible=1;marginBottom=0;whiteSpace=wrap;html=1;" vertex="1" parent="1">
          <mxGeometry x="500" y="287" width="200" height="200" as="geometry" />
        </mxCell>
        <mxCell id="TKt5UesDh4hAwmA9AJoG-6" value="callback&amp;nbsp; readHandler;&lt;br&gt;callback writeHandler;&lt;br&gt;long clientFd;" style="text;strokeColor=none;fillColor=none;align=left;verticalAlign=top;spacingLeft=4;spacingRight=4;overflow=hidden;rotatable=0;points=[[0,0.5],[1,0.5]];portConstraint=eastwest;whiteSpace=wrap;html=1;" vertex="1" parent="TKt5UesDh4hAwmA9AJoG-5">
          <mxGeometry y="26" width="200" height="64" as="geometry" />
        </mxCell>
        <mxCell id="TKt5UesDh4hAwmA9AJoG-7" value="" style="line;strokeWidth=1;fillColor=none;align=left;verticalAlign=middle;spacingTop=-1;spacingLeft=3;spacingRight=3;rotatable=0;labelPosition=right;points=[];portConstraint=eastwest;strokeColor=inherit;" vertex="1" parent="TKt5UesDh4hAwmA9AJoG-5">
          <mxGeometry y="90" width="200" height="8" as="geometry" />
        </mxCell>
        <mxCell id="TKt5UesDh4hAwmA9AJoG-8" value="void setReadHandler(callback);&lt;br&gt;callback getReadHandler();&lt;br&gt;void setWriteHandler(callback);&lt;br style=&quot;border-color: var(--border-color);&quot;&gt;callback getWriteHandler();&lt;br&gt;void handleRead();&lt;br&gt;void handleWrite();" style="text;strokeColor=none;fillColor=none;align=left;verticalAlign=top;spacingLeft=4;spacingRight=4;overflow=hidden;rotatable=0;points=[[0,0.5],[1,0.5]];portConstraint=eastwest;whiteSpace=wrap;html=1;" vertex="1" parent="TKt5UesDh4hAwmA9AJoG-5">
          <mxGeometry y="98" width="200" height="102" as="geometry" />
        </mxCell>
        <mxCell id="TKt5UesDh4hAwmA9AJoG-15" style="edgeStyle=orthogonalEdgeStyle;rounded=0;orthogonalLoop=1;jettySize=auto;html=1;exitX=0.5;exitY=1;exitDx=0;exitDy=0;entryX=0.5;entryY=0;entryDx=0;entryDy=0;" edge="1" parent="1" source="TKt5UesDh4hAwmA9AJoG-9" target="TKt5UesDh4hAwmA9AJoG-5">
          <mxGeometry relative="1" as="geometry" />
        </mxCell>
        <mxCell id="TKt5UesDh4hAwmA9AJoG-9" value="拥有socket读写事件处理器，socket；&lt;br&gt;负责读写事件的分流以及处理" style="rounded=1;whiteSpace=wrap;html=1;" vertex="1" parent="1">
          <mxGeometry x="540" y="180" width="120" height="60" as="geometry" />
        </mxCell>
        <mxCell id="TKt5UesDh4hAwmA9AJoG-10" value="epoll" style="swimlane;fontStyle=1;align=center;verticalAlign=top;childLayout=stackLayout;horizontal=1;startSize=26;horizontalStack=0;resizeParent=1;resizeParentMax=0;resizeLast=0;collapsible=1;marginBottom=0;whiteSpace=wrap;html=1;" vertex="1" parent="1">
          <mxGeometry x="820" y="286" width="160" height="86" as="geometry" />
        </mxCell>
        <mxCell id="TKt5UesDh4hAwmA9AJoG-11" value="+ field: type" style="text;strokeColor=none;fillColor=none;align=left;verticalAlign=top;spacingLeft=4;spacingRight=4;overflow=hidden;rotatable=0;points=[[0,0.5],[1,0.5]];portConstraint=eastwest;whiteSpace=wrap;html=1;" vertex="1" parent="TKt5UesDh4hAwmA9AJoG-10">
          <mxGeometry y="26" width="160" height="26" as="geometry" />
        </mxCell>
        <mxCell id="TKt5UesDh4hAwmA9AJoG-12" value="" style="line;strokeWidth=1;fillColor=none;align=left;verticalAlign=middle;spacingTop=-1;spacingLeft=3;spacingRight=3;rotatable=0;labelPosition=right;points=[];portConstraint=eastwest;strokeColor=inherit;" vertex="1" parent="TKt5UesDh4hAwmA9AJoG-10">
          <mxGeometry y="52" width="160" height="8" as="geometry" />
        </mxCell>
        <mxCell id="TKt5UesDh4hAwmA9AJoG-13" value="+ method(type): type" style="text;strokeColor=none;fillColor=none;align=left;verticalAlign=top;spacingLeft=4;spacingRight=4;overflow=hidden;rotatable=0;points=[[0,0.5],[1,0.5]];portConstraint=eastwest;whiteSpace=wrap;html=1;" vertex="1" parent="TKt5UesDh4hAwmA9AJoG-10">
          <mxGeometry y="60" width="160" height="26" as="geometry" />
        </mxCell>
        <mxCell id="TKt5UesDh4hAwmA9AJoG-17" style="edgeStyle=orthogonalEdgeStyle;rounded=0;orthogonalLoop=1;jettySize=auto;html=1;entryX=0.5;entryY=0;entryDx=0;entryDy=0;" edge="1" parent="1" source="TKt5UesDh4hAwmA9AJoG-16" target="TKt5UesDh4hAwmA9AJoG-10">
          <mxGeometry relative="1" as="geometry" />
        </mxCell>
        <mxCell id="TKt5UesDh4hAwmA9AJoG-16" value="拥有已连接的socketfd，channel；&lt;br&gt;负责监听" style="rounded=1;whiteSpace=wrap;html=1;" vertex="1" parent="1">
          <mxGeometry x="840" y="180" width="120" height="60" as="geometry" />
        </mxCell>
        <mxCell id="TKt5UesDh4hAwmA9AJoG-18" value="EventLoop" style="swimlane;fontStyle=1;align=center;verticalAlign=top;childLayout=stackLayout;horizontal=1;startSize=26;horizontalStack=0;resizeParent=1;resizeParentMax=0;resizeLast=0;collapsible=1;marginBottom=0;whiteSpace=wrap;html=1;" vertex="1" parent="1">
          <mxGeometry x="1180" y="287" width="160" height="86" as="geometry" />
        </mxCell>
        <mxCell id="TKt5UesDh4hAwmA9AJoG-19" value="+ field: type" style="text;strokeColor=none;fillColor=none;align=left;verticalAlign=top;spacingLeft=4;spacingRight=4;overflow=hidden;rotatable=0;points=[[0,0.5],[1,0.5]];portConstraint=eastwest;whiteSpace=wrap;html=1;" vertex="1" parent="TKt5UesDh4hAwmA9AJoG-18">
          <mxGeometry y="26" width="160" height="26" as="geometry" />
        </mxCell>
        <mxCell id="TKt5UesDh4hAwmA9AJoG-20" value="" style="line;strokeWidth=1;fillColor=none;align=left;verticalAlign=middle;spacingTop=-1;spacingLeft=3;spacingRight=3;rotatable=0;labelPosition=right;points=[];portConstraint=eastwest;strokeColor=inherit;" vertex="1" parent="TKt5UesDh4hAwmA9AJoG-18">
          <mxGeometry y="52" width="160" height="8" as="geometry" />
        </mxCell>
        <mxCell id="TKt5UesDh4hAwmA9AJoG-21" value="+ method(type): type" style="text;strokeColor=none;fillColor=none;align=left;verticalAlign=top;spacingLeft=4;spacingRight=4;overflow=hidden;rotatable=0;points=[[0,0.5],[1,0.5]];portConstraint=eastwest;whiteSpace=wrap;html=1;" vertex="1" parent="TKt5UesDh4hAwmA9AJoG-18">
          <mxGeometry y="60" width="160" height="26" as="geometry" />
        </mxCell>
        <mxCell id="TKt5UesDh4hAwmA9AJoG-22" style="edgeStyle=orthogonalEdgeStyle;rounded=0;orthogonalLoop=1;jettySize=auto;html=1;entryX=0.5;entryY=0;entryDx=0;entryDy=0;" edge="1" parent="1" source="TKt5UesDh4hAwmA9AJoG-23" target="TKt5UesDh4hAwmA9AJoG-18">
          <mxGeometry relative="1" as="geometry" />
        </mxCell>
        <mxCell id="TKt5UesDh4hAwmA9AJoG-23" value="事件循环封装，拥有epoll，channel；&lt;br&gt;负责循环监听并处理事件" style="rounded=1;whiteSpace=wrap;html=1;" vertex="1" parent="1">
          <mxGeometry x="1200" y="181" width="120" height="60" as="geometry" />
        </mxCell>
        <mxCell id="TKt5UesDh4hAwmA9AJoG-24" value="EventLoopThread" style="swimlane;fontStyle=1;align=center;verticalAlign=top;childLayout=stackLayout;horizontal=1;startSize=26;horizontalStack=0;resizeParent=1;resizeParentMax=0;resizeLast=0;collapsible=1;marginBottom=0;whiteSpace=wrap;html=1;" vertex="1" parent="1">
          <mxGeometry x="1510" y="286" width="160" height="86" as="geometry" />
        </mxCell>
        <mxCell id="TKt5UesDh4hAwmA9AJoG-25" value="+ field: type" style="text;strokeColor=none;fillColor=none;align=left;verticalAlign=top;spacingLeft=4;spacingRight=4;overflow=hidden;rotatable=0;points=[[0,0.5],[1,0.5]];portConstraint=eastwest;whiteSpace=wrap;html=1;" vertex="1" parent="TKt5UesDh4hAwmA9AJoG-24">
          <mxGeometry y="26" width="160" height="26" as="geometry" />
        </mxCell>
        <mxCell id="TKt5UesDh4hAwmA9AJoG-26" value="" style="line;strokeWidth=1;fillColor=none;align=left;verticalAlign=middle;spacingTop=-1;spacingLeft=3;spacingRight=3;rotatable=0;labelPosition=right;points=[];portConstraint=eastwest;strokeColor=inherit;" vertex="1" parent="TKt5UesDh4hAwmA9AJoG-24">
          <mxGeometry y="52" width="160" height="8" as="geometry" />
        </mxCell>
        <mxCell id="TKt5UesDh4hAwmA9AJoG-27" value="+ method(type): type" style="text;strokeColor=none;fillColor=none;align=left;verticalAlign=top;spacingLeft=4;spacingRight=4;overflow=hidden;rotatable=0;points=[[0,0.5],[1,0.5]];portConstraint=eastwest;whiteSpace=wrap;html=1;" vertex="1" parent="TKt5UesDh4hAwmA9AJoG-24">
          <mxGeometry y="60" width="160" height="26" as="geometry" />
        </mxCell>
        <mxCell id="TKt5UesDh4hAwmA9AJoG-28" style="edgeStyle=orthogonalEdgeStyle;rounded=0;orthogonalLoop=1;jettySize=auto;html=1;entryX=0.5;entryY=0;entryDx=0;entryDy=0;" edge="1" parent="1" source="TKt5UesDh4hAwmA9AJoG-29" target="TKt5UesDh4hAwmA9AJoG-24">
          <mxGeometry relative="1" as="geometry" />
        </mxCell>
        <mxCell id="TKt5UesDh4hAwmA9AJoG-29" value="对eventloop的进一步封装，拥有eventloop；thread&lt;br&gt;负责绑定线程函数，启动控制线程" style="rounded=1;whiteSpace=wrap;html=1;" vertex="1" parent="1">
          <mxGeometry x="1530" y="160" width="120" height="80" as="geometry" />
        </mxCell>
        <mxCell id="TKt5UesDh4hAwmA9AJoG-30" value="EventLoopThreadPool" style="swimlane;fontStyle=1;align=center;verticalAlign=top;childLayout=stackLayout;horizontal=1;startSize=26;horizontalStack=0;resizeParent=1;resizeParentMax=0;resizeLast=0;collapsible=1;marginBottom=0;whiteSpace=wrap;html=1;" vertex="1" parent="1">
          <mxGeometry x="500" y="691" width="160" height="86" as="geometry" />
        </mxCell>
        <mxCell id="TKt5UesDh4hAwmA9AJoG-31" value="+ field: type" style="text;strokeColor=none;fillColor=none;align=left;verticalAlign=top;spacingLeft=4;spacingRight=4;overflow=hidden;rotatable=0;points=[[0,0.5],[1,0.5]];portConstraint=eastwest;whiteSpace=wrap;html=1;" vertex="1" parent="TKt5UesDh4hAwmA9AJoG-30">
          <mxGeometry y="26" width="160" height="26" as="geometry" />
        </mxCell>
        <mxCell id="TKt5UesDh4hAwmA9AJoG-32" value="" style="line;strokeWidth=1;fillColor=none;align=left;verticalAlign=middle;spacingTop=-1;spacingLeft=3;spacingRight=3;rotatable=0;labelPosition=right;points=[];portConstraint=eastwest;strokeColor=inherit;" vertex="1" parent="TKt5UesDh4hAwmA9AJoG-30">
          <mxGeometry y="52" width="160" height="8" as="geometry" />
        </mxCell>
        <mxCell id="TKt5UesDh4hAwmA9AJoG-33" value="+ method(type): type" style="text;strokeColor=none;fillColor=none;align=left;verticalAlign=top;spacingLeft=4;spacingRight=4;overflow=hidden;rotatable=0;points=[[0,0.5],[1,0.5]];portConstraint=eastwest;whiteSpace=wrap;html=1;" vertex="1" parent="TKt5UesDh4hAwmA9AJoG-30">
          <mxGeometry y="60" width="160" height="26" as="geometry" />
        </mxCell>
        <mxCell id="TKt5UesDh4hAwmA9AJoG-34" style="edgeStyle=orthogonalEdgeStyle;rounded=0;orthogonalLoop=1;jettySize=auto;html=1;entryX=0.5;entryY=0;entryDx=0;entryDy=0;" edge="1" parent="1" source="TKt5UesDh4hAwmA9AJoG-35" target="TKt5UesDh4hAwmA9AJoG-30">
          <mxGeometry relative="1" as="geometry" />
        </mxCell>
        <mxCell id="TKt5UesDh4hAwmA9AJoG-35" value="拥有eventloopthread，负责启动控制eventloopthread，轮询式调度eventloopthread" style="rounded=1;whiteSpace=wrap;html=1;" vertex="1" parent="1">
          <mxGeometry x="520" y="540" width="120" height="105" as="geometry" />
        </mxCell>
        <mxCell id="TKt5UesDh4hAwmA9AJoG-42" value="Connector" style="swimlane;fontStyle=1;align=center;verticalAlign=top;childLayout=stackLayout;horizontal=1;startSize=26;horizontalStack=0;resizeParent=1;resizeParentMax=0;resizeLast=0;collapsible=1;marginBottom=0;whiteSpace=wrap;html=1;" vertex="1" parent="1">
          <mxGeometry x="819" y="690" width="160" height="86" as="geometry" />
        </mxCell>
        <mxCell id="TKt5UesDh4hAwmA9AJoG-43" value="+ field: type" style="text;strokeColor=none;fillColor=none;align=left;verticalAlign=top;spacingLeft=4;spacingRight=4;overflow=hidden;rotatable=0;points=[[0,0.5],[1,0.5]];portConstraint=eastwest;whiteSpace=wrap;html=1;" vertex="1" parent="TKt5UesDh4hAwmA9AJoG-42">
          <mxGeometry y="26" width="160" height="26" as="geometry" />
        </mxCell>
        <mxCell id="TKt5UesDh4hAwmA9AJoG-44" value="" style="line;strokeWidth=1;fillColor=none;align=left;verticalAlign=middle;spacingTop=-1;spacingLeft=3;spacingRight=3;rotatable=0;labelPosition=right;points=[];portConstraint=eastwest;strokeColor=inherit;" vertex="1" parent="TKt5UesDh4hAwmA9AJoG-42">
          <mxGeometry y="52" width="160" height="8" as="geometry" />
        </mxCell>
        <mxCell id="TKt5UesDh4hAwmA9AJoG-45" value="+ method(type): type" style="text;strokeColor=none;fillColor=none;align=left;verticalAlign=top;spacingLeft=4;spacingRight=4;overflow=hidden;rotatable=0;points=[[0,0.5],[1,0.5]];portConstraint=eastwest;whiteSpace=wrap;html=1;" vertex="1" parent="TKt5UesDh4hAwmA9AJoG-42">
          <mxGeometry y="60" width="160" height="26" as="geometry" />
        </mxCell>
        <mxCell id="TKt5UesDh4hAwmA9AJoG-46" style="edgeStyle=orthogonalEdgeStyle;rounded=0;orthogonalLoop=1;jettySize=auto;html=1;entryX=0.5;entryY=0;entryDx=0;entryDy=0;" edge="1" parent="1" source="TKt5UesDh4hAwmA9AJoG-47" target="TKt5UesDh4hAwmA9AJoG-42">
          <mxGeometry relative="1" as="geometry" />
        </mxCell>
        <mxCell id="TKt5UesDh4hAwmA9AJoG-47" value="拥有eventLoopthreadpool，channel；&lt;br&gt;负责建立新连接，并给新连接分配托管eventloopthread,控制服务器并发连接数等" style="rounded=1;whiteSpace=wrap;html=1;" vertex="1" parent="1">
          <mxGeometry x="839" y="539" width="120" height="105" as="geometry" />
        </mxCell>
        <mxCell id="TKt5UesDh4hAwmA9AJoG-49" value="ServiceDistribitionMergeCenter" style="swimlane;fontStyle=1;align=center;verticalAlign=top;childLayout=stackLayout;horizontal=1;startSize=26;horizontalStack=0;resizeParent=1;resizeParentMax=0;resizeLast=0;collapsible=1;marginBottom=0;whiteSpace=wrap;html=1;" vertex="1" parent="1">
          <mxGeometry x="1155" y="691" width="210" height="86" as="geometry" />
        </mxCell>
        <mxCell id="TKt5UesDh4hAwmA9AJoG-50" value="+ field: type" style="text;strokeColor=none;fillColor=none;align=left;verticalAlign=top;spacingLeft=4;spacingRight=4;overflow=hidden;rotatable=0;points=[[0,0.5],[1,0.5]];portConstraint=eastwest;whiteSpace=wrap;html=1;" vertex="1" parent="TKt5UesDh4hAwmA9AJoG-49">
          <mxGeometry y="26" width="210" height="26" as="geometry" />
        </mxCell>
        <mxCell id="TKt5UesDh4hAwmA9AJoG-51" value="" style="line;strokeWidth=1;fillColor=none;align=left;verticalAlign=middle;spacingTop=-1;spacingLeft=3;spacingRight=3;rotatable=0;labelPosition=right;points=[];portConstraint=eastwest;strokeColor=inherit;" vertex="1" parent="TKt5UesDh4hAwmA9AJoG-49">
          <mxGeometry y="52" width="210" height="8" as="geometry" />
        </mxCell>
        <mxCell id="TKt5UesDh4hAwmA9AJoG-52" value="+ method(type): type" style="text;strokeColor=none;fillColor=none;align=left;verticalAlign=top;spacingLeft=4;spacingRight=4;overflow=hidden;rotatable=0;points=[[0,0.5],[1,0.5]];portConstraint=eastwest;whiteSpace=wrap;html=1;" vertex="1" parent="TKt5UesDh4hAwmA9AJoG-49">
          <mxGeometry y="60" width="210" height="26" as="geometry" />
        </mxCell>
        <mxCell id="TKt5UesDh4hAwmA9AJoG-53" style="edgeStyle=orthogonalEdgeStyle;rounded=0;orthogonalLoop=1;jettySize=auto;html=1;entryX=0.5;entryY=0;entryDx=0;entryDy=0;" edge="1" parent="1" source="TKt5UesDh4hAwmA9AJoG-54" target="TKt5UesDh4hAwmA9AJoG-49">
          <mxGeometry relative="1" as="geometry" />
        </mxCell>
        <mxCell id="TKt5UesDh4hAwmA9AJoG-54" value="拥有中介者类，各个服务模块类；&lt;br&gt;负责接收、解析来自下层的业务数据，并进行业务任务分流到各个业务模块处理类" style="rounded=1;whiteSpace=wrap;html=1;" vertex="1" parent="1">
          <mxGeometry x="1200" y="539" width="120" height="105" as="geometry" />
        </mxCell>
        <mxCell id="TKt5UesDh4hAwmA9AJoG-56" value="ServiceMediator" style="swimlane;fontStyle=1;align=center;verticalAlign=top;childLayout=stackLayout;horizontal=1;startSize=26;horizontalStack=0;resizeParent=1;resizeParentMax=0;resizeLast=0;collapsible=1;marginBottom=0;whiteSpace=wrap;html=1;" vertex="1" parent="1">
          <mxGeometry x="1498" y="688" width="210" height="86" as="geometry" />
        </mxCell>
        <mxCell id="TKt5UesDh4hAwmA9AJoG-57" value="+ field: type" style="text;strokeColor=none;fillColor=none;align=left;verticalAlign=top;spacingLeft=4;spacingRight=4;overflow=hidden;rotatable=0;points=[[0,0.5],[1,0.5]];portConstraint=eastwest;whiteSpace=wrap;html=1;" vertex="1" parent="TKt5UesDh4hAwmA9AJoG-56">
          <mxGeometry y="26" width="210" height="26" as="geometry" />
        </mxCell>
        <mxCell id="TKt5UesDh4hAwmA9AJoG-58" value="" style="line;strokeWidth=1;fillColor=none;align=left;verticalAlign=middle;spacingTop=-1;spacingLeft=3;spacingRight=3;rotatable=0;labelPosition=right;points=[];portConstraint=eastwest;strokeColor=inherit;" vertex="1" parent="TKt5UesDh4hAwmA9AJoG-56">
          <mxGeometry y="52" width="210" height="8" as="geometry" />
        </mxCell>
        <mxCell id="TKt5UesDh4hAwmA9AJoG-59" value="+ method(type): type" style="text;strokeColor=none;fillColor=none;align=left;verticalAlign=top;spacingLeft=4;spacingRight=4;overflow=hidden;rotatable=0;points=[[0,0.5],[1,0.5]];portConstraint=eastwest;whiteSpace=wrap;html=1;" vertex="1" parent="TKt5UesDh4hAwmA9AJoG-56">
          <mxGeometry y="60" width="210" height="26" as="geometry" />
        </mxCell>
        <mxCell id="TKt5UesDh4hAwmA9AJoG-60" style="edgeStyle=orthogonalEdgeStyle;rounded=0;orthogonalLoop=1;jettySize=auto;html=1;entryX=0.5;entryY=0;entryDx=0;entryDy=0;" edge="1" parent="1" source="TKt5UesDh4hAwmA9AJoG-61" target="TKt5UesDh4hAwmA9AJoG-56">
          <mxGeometry relative="1" as="geometry" />
        </mxCell>
        <mxCell id="TKt5UesDh4hAwmA9AJoG-61" value="拥有channel，ServiceDistribitionMergeCenter;&lt;br&gt;负责数据的传递（即进行接口隔离）" style="rounded=1;whiteSpace=wrap;html=1;" vertex="1" parent="1">
          <mxGeometry x="1510.5" y="536" width="185" height="105" as="geometry" />
        </mxCell>
        <mxCell id="TKt5UesDh4hAwmA9AJoG-63" style="edgeStyle=orthogonalEdgeStyle;rounded=0;orthogonalLoop=1;jettySize=auto;html=1;entryX=0.563;entryY=0.021;entryDx=0;entryDy=0;entryPerimeter=0;" edge="1" parent="1" source="TKt5UesDh4hAwmA9AJoG-62" target="TKt5UesDh4hAwmA9AJoG-1">
          <mxGeometry relative="1" as="geometry" />
        </mxCell>
        <mxCell id="TKt5UesDh4hAwmA9AJoG-62" value="拥有ServiceMediator以及下方的资源；&lt;br&gt;负责接收数据，解析底层协议，维护连接稳定性，将业务数据传递给业务中介者" style="rounded=1;whiteSpace=wrap;html=1;" vertex="1" parent="1">
          <mxGeometry x="100" y="100" width="120" height="100" as="geometry" />
        </mxCell>
      </root>
    </mxGraphModel>
  </diagram>
</mxfile>
